<svg xmlns="http://www.w3.org/2000/svg" viewBox="0 0 325.98 92.68"><defs><style>.cls-1{fill:#11bdcf;}.cls-2{fill:#2a4f77;}.cls-3{fill:#dbf5f8;}</style></defs><title>Logo</title><g id="Layer_2" data-name="Layer 2"><g id="Layer_1-2" data-name="Layer 1"><g id="LogoDark"><path class="cls-1" d="M326,83.91a8.79,8.79,0,0,1-8.77,8.77H8.77A8.8,8.8,0,0,1,0,83.91V18.83a9.14,9.14,0,0,1,8.77-9L317.21,0A8.47,8.47,0,0,1,326,8.5Z"/><path class="cls-2" d="M41.89,46V56.88a.55.55,0,0,1-.24.46,23.71,23.71,0,0,1-12.23,3.73c-9.13,0-16-6.6-16-15.35s7.07-15.26,16.54-15.26a19.34,19.34,0,0,1,11.85,4.11.54.54,0,0,1,.06.77l-3.58,4.34a.54.54,0,0,1-.77.06,12.28,12.28,0,0,0-7.6-2.89,8.64,8.64,0,0,0-8.7,8.87,8.7,8.7,0,0,0,8.79,9,12.5,12.5,0,0,0,5-1.3.56.56,0,0,0,.31-.5V46a.55.55,0,0,1,.55-.55h5.5A.54.54,0,0,1,41.89,46Z"/><path class="cls-2" d="M62.56,52.28h-6v8.45H48.93v-30H62.35c7.93,0,12.47,3.77,12.47,10.46,0,4.59-1.93,7.89-5.44,9.65l6.3,9.9H67Zm-.21-6c3.3,0,5.23-1.67,5.23-4.84s-1.93-4.72-5.23-4.72H56.56v9.56Z"/><path class="cls-2" d="M88.5,55.2l-2.19,5.53H78.47l13-30h7.84l12.65,30h-8.15l-2.14-5.53Zm6.6-16.89-4.37,11.1h8.66Z"/><path class="cls-2" d="M129.31,30.72c9.44,0,15.95,6.09,15.95,15s-6.6,15-16.25,15h-12.6v-30ZM124,54.64h5.45c4.67,0,8-3.6,8-8.87s-3.51-9-8.36-9H124Z"/><path class="cls-2" d="M158.64,36.72v6H173v6H158.64v6H175v6H151v-30H174.5v6Z"/><path class="cls-2" d="M202,54.34v6.39H181.62v-30h7.63V54.34Z"/><path class="cls-2" d="M222.82,60.73h-7.58V51.25L204.13,30.72h7.63L219,43.79l7.07-13.07h7.63L222.82,51Z"/><path class="cls-2" d="M244,57.47a3.44,3.44,0,0,1-3.6,3.6,3.58,3.58,0,1,1,3.6-3.6Z"/><path class="cls-2" d="M271.31,60.73l-13.8-18.48V60.73h-7.16v-30h6.73l13.85,18.52V30.72H278v30Z"/><path class="cls-2" d="M312.3,45.47v11.7a23.63,23.63,0,0,1-12.48,3.9c-9.13,0-16-6.6-16-15.35s7.07-15.26,16.55-15.26a19.21,19.21,0,0,1,12.26,4.46l-4.29,5.19a12.3,12.3,0,0,0-8-3.26,8.65,8.65,0,0,0-8.71,8.87,8.7,8.7,0,0,0,8.79,9,12.77,12.77,0,0,0,5.32-1.45V45.47Z"/><path class="cls-3" d="M259.65,66.08c4.06,0,6.58,1.85,6.58,4.9a4.29,4.29,0,0,1-3.44,4.37,4.76,4.76,0,0,1,4.2,5c0,3.36-2.72,5.37-7.14,5.37h-8.71V66.08Zm-5.21,8.12h5c2.1,0,3.36-1,3.36-2.63S261.58,69,259.48,69h-5Zm0,8.54h5c2.58,0,4.12-1,4.12-2.85s-1.54-2.78-4.12-2.78h-5Z"/><path class="cls-3" d="M283.81,79.47H272.56a4.54,4.54,0,0,0,4.62,3.72,5.8,5.8,0,0,0,4.2-1.74l1.71,1.82a8.11,8.11,0,0,1-6.16,2.52c-4.6,0-7.62-3.05-7.62-7.53a7.23,7.23,0,0,1,7.53-7.59C282.08,70.67,284.21,74.09,283.81,79.47ZM281,77.11a3.82,3.82,0,0,0-4.14-3.86,4.24,4.24,0,0,0-4.37,3.86Z"/><path class="cls-3" d="M295.6,84.73a7.13,7.13,0,0,1-3.66,1.09c-2.25,0-4.18-1.29-4.18-4.34V73.75h-2.1v-2.4h2.1V67.26H291v4.09h4.39v2.4H291v7.14c0,1.54.58,2,1.59,2a5.2,5.2,0,0,0,2.24-.64Z"/><path class="cls-3" d="M307.5,83.86a6,6,0,0,1-4.93,2c-3.22,0-5.23-2-5.23-4.62s2-4.45,5.63-4.48h4.51v-.45c0-1.87-1.21-3-3.56-3a7.86,7.86,0,0,0-4.4,1.51l-1.31-2.24a10.91,10.91,0,0,1,6.41-1.88c3.84,0,6,2,6,5.24l0,9.77H307.5Zm0-3.41V79.07h-4c-2.1,0-3.08.56-3.08,2s1.1,2.21,2.89,2.21C305.54,83.27,307.31,82.07,307.48,80.45Z"/></g></g></g></svg>